<?xml version="1.0" encoding="UTF-8"?>
<svg width="258.38mm" height="96.292mm" version="1.1" viewBox="0 0 258.38 96.292" xmlns="http://www.w3.org/2000/svg" xmlns:cc="http://creativecommons.org/ns#" xmlns:dc="http://purl.org/dc/elements/1.1/" xmlns:rdf="http://www.w3.org/1999/02/22-rdf-syntax-ns#">
 <defs>
  <clipPath id="clipPath980-1-4">
   <rect x="76.351" y="212.04" width="30" height="60" fill="#a0990a" opacity=".49832"/>
  </clipPath>
  <clipPath id="clipPath980-9-5-2">
   <rect x="76.351" y="212.04" width="30" height="60" fill="#a0990a" opacity=".49832"/>
  </clipPath>
 </defs>
 <metadata>
  <rdf:RDF>
   <cc:Work rdf:about="">
    <dc:format>image/svg+xml</dc:format>
    <dc:type rdf:resource="http://purl.org/dc/dcmitype/StillImage"/>
    <dc:title/>
   </cc:Work>
  </rdf:RDF>
 </metadata>
 <g transform="translate(31.197 -39.691)">
  <g transform="matrix(1.6049 0 0 1.6049 -72.499 -209.06)">
   <rect x="55.735" y="155" width="101" height="60" fill="#db7f90"/>
   <path transform="translate(-50.616 -57.049)" d="m136.35 242.04a30 30 0 0 1-29.49 29.996 30 30 0 0 1-30.493-28.976 30 30 0 0 1 28.454-30.981 30 30 0 0 1 31.46 27.923" clip-path="url(#clipPath980-1-4)" fill="#1B998B"/>
   <path transform="matrix(-1 0 0 1 263.09 -57.049)" d="m136.35 242.04a30 30 0 0 1-29.49 29.996 30 30 0 0 1-30.493-28.976 30 30 0 0 1 28.454-30.981 30 30 0 0 1 31.46 27.923" clip-path="url(#clipPath980-9-5-2)" fill="#1b998b"/>
   <text x="33.042328" y="197.862" fill="#ffffff" font-family="sans-serif" font-size="10.583px" stroke-width=".26458" style="line-height:1.25" xml:space="preserve"><tspan x="33.042328" y="197.862" fill="#ffffff" font-family="'Fairfax Hax HD'" font-size="42.333px" stroke-width=".26458">RikedyP</tspan></text>
  </g>
 </g>
</svg>
